<?xml version="1.0" encoding="UTF-8" standalone="no"?>
<!-- Created with Inkscape (http://www.inkscape.org/) -->

<svg
   xmlns:dc="http://purl.org/dc/elements/1.1/"
   xmlns:cc="http://creativecommons.org/ns#"
   xmlns:rdf="http://www.w3.org/1999/02/22-rdf-syntax-ns#"
   xmlns:svg="http://www.w3.org/2000/svg"
   xmlns="http://www.w3.org/2000/svg"
   xmlns:xlink="http://www.w3.org/1999/xlink"
   xmlns:sodipodi="http://sodipodi.sourceforge.net/DTD/sodipodi-0.dtd"
   xmlns:inkscape="http://www.inkscape.org/namespaces/inkscape"
   width="765"
   height="990"
   id="svg2"
   version="1.1"
   inkscape:version="0.48.2 r9819"
   sodipodi:docname="timing diagrams.svg">
  <defs
     id="defs4">
    <inkscape:perspective
       sodipodi:type="inkscape:persp3d"
       inkscape:vp_x="0 : 526.18109 : 1"
       inkscape:vp_y="0 : 1000 : 0"
       inkscape:vp_z="744.09448 : 526.18109 : 1"
       inkscape:persp3d-origin="372.04724 : 350.78739 : 1"
       id="perspective10" />
  </defs>
  <sodipodi:namedview
     id="base"
     pagecolor="#ffffff"
     bordercolor="#666666"
     borderopacity="1.0"
     inkscape:pageopacity="0.0"
     inkscape:pageshadow="2"
     inkscape:zoom="1.2653595"
     inkscape:cx="433.3705"
     inkscape:cy="439.67976"
     inkscape:document-units="px"
     inkscape:current-layer="layer1"
     showgrid="false"
     showborder="true"
     inkscape:showpageshadow="false"
     inkscape:snap-grids="true"
     showguides="false"
     inkscape:window-width="985"
     inkscape:window-height="756"
     inkscape:window-x="42"
     inkscape:window-y="0"
     inkscape:window-maximized="0">
    <inkscape:grid
       type="xygrid"
       id="grid3331"
       empspacing="4"
       visible="true"
       enabled="true"
       snapvisiblegridlinesonly="true"
       units="cm"
       spacingx="0.25cm"
       spacingy="0.25cm"
       dotted="true" />
  </sodipodi:namedview>
  <metadata
     id="metadata7">
    <rdf:RDF>
      <cc:Work
         rdf:about="">
        <dc:format>image/svg+xml</dc:format>
        <dc:type
           rdf:resource="http://purl.org/dc/dcmitype/StillImage" />
        <dc:title />
      </cc:Work>
    </rdf:RDF>
  </metadata>
  <g
     inkscape:label="Layer 1"
     inkscape:groupmode="layer"
     id="layer1"
     transform="translate(0,-62.362183)">
    <use
       x="0"
       y="0"
       xlink:href="#use3609"
       id="use3611"
       transform="translate(35.433071,0)"
       width="765"
       height="990" />
    <use
       x="0"
       y="0"
       xlink:href="#use3607"
       id="use3609"
       transform="translate(35.433071,0)"
       width="765"
       height="990" />
    <use
       x="0"
       y="0"
       xlink:href="#use3605"
       id="use3607"
       transform="translate(35.433071,0)"
       width="765"
       height="990" />
    <use
       x="0"
       y="0"
       xlink:href="#use3603"
       id="use3605"
       transform="translate(35.433071,0)"
       width="765"
       height="990" />
    <use
       x="0"
       y="0"
       xlink:href="#use3601"
       id="use3603"
       transform="translate(35.433071,0)"
       width="765"
       height="990" />
    <use
       x="0"
       y="0"
       xlink:href="#use3599"
       id="use3601"
       transform="translate(35.43307,0)"
       width="765"
       height="990" />
    <use
       x="0"
       y="0"
       xlink:href="#use3597"
       id="use3599"
       transform="translate(35.433071,0)"
       width="765"
       height="990" />
    <use
       x="0"
       y="0"
       xlink:href="#use3595"
       id="use3597"
       transform="translate(35.433071,0)"
       width="765"
       height="990" />
    <use
       x="0"
       y="0"
       xlink:href="#use3593"
       id="use3595"
       transform="translate(35.433071,0)"
       width="765"
       height="990" />
    <use
       x="0"
       y="0"
       xlink:href="#use3591"
       id="use3593"
       transform="translate(35.433071,0)"
       width="765"
       height="990" />
    <use
       x="0"
       y="0"
       xlink:href="#path2815"
       id="use3591"
       transform="translate(70.866146,4.4094488e-6)"
       width="765"
       height="990" />
    <use
       x="0"
       y="0"
       xlink:href="#path2815"
       id="use3589"
       transform="translate(35.433075,4.4094488e-6)"
       width="765"
       height="990" />
    <path
       style="fill:none;stroke:#cccccc;stroke-width:1;stroke-linecap:butt;stroke-linejoin:miter;stroke-opacity:1;stroke-miterlimit:4;stroke-dasharray:none;stroke-dashoffset:0"
       d="m 177.16535,352.20472 0,372.04725"
       id="path2815"
       transform="translate(0,62.362183)"
       sodipodi:nodetypes="cc" />
    <path
       style="fill:#999999;stroke:#000000;stroke-width:1;stroke-linecap:butt;stroke-linejoin:miter;stroke-miterlimit:4;stroke-opacity:1;stroke-dasharray:none;stroke-dashoffset:0"
       d="m 270.18893,573.89253 0,34.2141"
       id="path3635"
       transform="translate(0,62.362183)"
       sodipodi:nodetypes="cc"
       inkscape:connector-curvature="0" />
    <path
       style="fill:none;stroke:#000000;stroke-width:1px;stroke-linecap:butt;stroke-linejoin:miter;stroke-opacity:1"
       d="m 159.44882,387.6378 17.71653,0 8.85827,-17.71654 62.00788,0 8.85826,17.71654 363.18898,0"
       id="path2813"
       transform="translate(0,62.362183)"
       sodipodi:nodetypes="cccccc" />
    <path
       style="fill:none;stroke:#000000;stroke-width:1px;stroke-linecap:butt;stroke-linejoin:miter;stroke-opacity:1"
       d="m 159.44882,423.07087 53.14961,0 8.85826,-17.71654 26.57481,0 8.85826,17.71654 363.18898,0"
       id="path3613"
       transform="translate(0,62.362183)"
       sodipodi:nodetypes="cccccc" />
    <path
       style="fill:none;stroke:#000000;stroke-width:1px;stroke-linecap:butt;stroke-linejoin:miter;stroke-opacity:1"
       d="m 159.44882,440.7874 53.14961,0 8.85826,17.71654 26.57481,0 8.85826,-17.71654 363.18898,0"
       id="path3615"
       transform="translate(0,62.362183)"
       sodipodi:nodetypes="cccccc" />
    <path
       style="fill:none;stroke:#000000;stroke-width:1px;stroke-linecap:butt;stroke-linejoin:miter;stroke-opacity:1"
       d="m 159.44882,476.22047 88.58268,0 8.85826,17.71654 26.57481,0 8.85826,-17.71654 327.75591,0"
       id="path3617"
       transform="translate(0,62.362183)"
       sodipodi:nodetypes="cccccc" />
    <path
       style="fill:none;stroke:#000000;stroke-width:1px;stroke-linecap:butt;stroke-linejoin:miter;stroke-opacity:1"
       d="m 159.44882,529.37008 460.62992,0"
       id="path3619"
       transform="translate(0,62.362183)"
       sodipodi:nodetypes="cc" />
    <path
       style="fill:none;stroke:#000000;stroke-width:1px;stroke-linecap:butt;stroke-linejoin:miter;stroke-opacity:1"
       d="m 248.0315,529.37008 8.85826,-17.71654 363.18898,0"
       id="path3621"
       transform="translate(0,62.362183)"
       sodipodi:nodetypes="ccc" />
    <path
       style="fill:none;stroke:#000000;stroke-width:1px;stroke-linecap:butt;stroke-linejoin:miter;stroke-opacity:1"
       d="m 159.44882,564.80315 106.29921,0 8.85827,-17.71654 8.85827,0 8.85826,17.71654 8.85827,0 8.85827,-17.71654 8.85827,0 8.85827,17.71654 8.85826,0 8.85827,-17.71654 8.85827,0 8.85827,17.71654 8.85826,0 8.85827,-17.71654 8.85827,0 8.85827,17.71654 8.85826,0 8.85827,-17.71654 8.85827,0 8.85827,17.71654 8.85827,0 8.85826,-17.71654 8.85827,0 8.85827,17.71654 8.85827,0 8.85826,-17.71654 8.85827,0 8.85827,17.71654 8.85827,0 8.85827,-17.71654 8.85826,0 8.85827,17.71654 8.85827,0 8.85827,-17.71654 8.85826,0 8.85827,17.71654 8.85827,0 8.85827,-17.71654 8.85826,0 8.85827,17.71654 8.85827,0"
       id="path3623"
       transform="translate(0,62.362183)" />
    <path
       style="fill:none;stroke:#000000;stroke-width:1px;stroke-linecap:butt;stroke-linejoin:miter;stroke-opacity:1"
       d="m 159.44882,582.51969 88.58268,0 8.85826,17.71653 363.18898,0"
       id="path3625"
       transform="translate(0,62.362183)"
       sodipodi:nodetypes="cccc" />
    <path
       style="fill:none;stroke:#000000;stroke-width:1px;stroke-linecap:butt;stroke-linejoin:miter;stroke-opacity:1"
       d="m 159.44882,600.23622 88.58268,0 8.85826,-17.71653 363.18898,0"
       id="path3627"
       transform="translate(0,62.362183)"
       sodipodi:nodetypes="cccc" />
    <path
       sodipodi:type="arc"
       style="stroke-width:1;stroke-miterlimit:4;stroke-dasharray:1, 3;stroke-dashoffset:0"
       id="path3633"
       sodipodi:cx="256.88977"
       sodipodi:cy="724.25195"
       sodipodi:rx="8.8582678"
       sodipodi:ry="8.8582678"
       d="m 265.74804,724.25195 c 0,4.89229 -3.96598,8.85827 -8.85827,8.85827 -4.89229,0 -8.85827,-3.96598 -8.85827,-8.85827 0,-4.89228 3.96598,-8.85826 8.85827,-8.85826 4.89229,0 8.85827,3.96598 8.85827,8.85826 z"
       transform="matrix(0.26343296,0,0,0.26343296,202.5299,427.24011)" />
    <path
       style="fill:none;stroke:#000000;stroke-width:1px;stroke-linecap:butt;stroke-linejoin:miter;stroke-opacity:1"
       d="m 159.44882,635.66929 230.31496,0 8.85827,-17.71653 26.5748,0 8.85827,17.71653 26.5748,0 8.85827,-17.71653 26.5748,0 8.85827,17.71653 26.5748,0 8.85827,-17.71653 26.5748,0 8.85827,17.71653 26.5748,0 8.85827,-17.71653 8.85827,0"
       id="path3637"
       transform="translate(0,62.362183)"
       sodipodi:nodetypes="cccccccccccccccc" />
    <path
       style="fill:none;stroke:#000000;stroke-width:1px;stroke-linecap:butt;stroke-linejoin:miter;stroke-opacity:1"
       d="m 159.44882,617.95276 230.31496,0 8.85827,17.71653 26.5748,0 8.85827,-17.71653 26.5748,0 8.85827,17.71653 26.5748,0 8.85827,-17.71653 26.5748,0 8.85827,17.71653 26.5748,0 8.85827,-17.71653 26.5748,0 8.85827,17.71653 8.85827,0"
       id="path3639"
       transform="translate(0,62.362183)"
       sodipodi:nodetypes="cccccccccccccccc" />
    <path
       id="path3641"
       d="m 159.44882,715.74801 265.74803,10e-6 8.85827,17.71653 26.5748,0 8.85827,-17.71653 26.5748,0 8.85827,17.71653 26.5748,0 8.85827,-17.71653 26.5748,0 8.85827,17.71653 26.5748,0 8.85827,-17.71653 8.85827,-10e-6"
       style="fill:none;stroke:#000000;stroke-width:1px;stroke-linecap:butt;stroke-linejoin:miter;stroke-opacity:1"
       sodipodi:nodetypes="cccccccccccccc" />
    <path
       id="path3643"
       d="m 159.44882,733.46455 265.74803,-10e-6 8.85827,-17.71653 26.5748,0 8.85827,17.71653 26.5748,0 8.85827,-17.71653 26.5748,0 8.85827,17.71653 26.5748,0 8.85827,-17.71653 26.5748,0 8.85827,17.71653 8.85827,10e-6"
       style="fill:none;stroke:#000000;stroke-width:1px;stroke-linecap:butt;stroke-linejoin:miter;stroke-opacity:1"
       sodipodi:nodetypes="cccccccccccccc" />
    <path
       style="fill:none;stroke:#000000;stroke-width:1px;stroke-linecap:butt;stroke-linejoin:miter;stroke-opacity:1"
       d="m 159.44882,706.53543 194.88189,0 8.85827,-17.71653 256.88976,0"
       id="path3645"
       transform="translate(0,62.362183)"
       sodipodi:nodetypes="cccc" />
    <text
       xml:space="preserve"
       style="font-size:12px;font-style:normal;font-weight:normal;fill:#000000;fill-opacity:1;stroke:none;font-family:Bitstream Vera Sans"
       x="124.01575"
       y="441.14172"
       id="text3653"><tspan
         sodipodi:role="line"
         id="tspan3655"
         x="124.01575"
         y="441.14172">ready</tspan></text>
    <text
       xml:space="preserve"
       style="font-size:12px;font-style:normal;font-weight:normal;fill:#000000;fill-opacity:1;stroke:none;font-family:Bitstream Vera Sans"
       x="106.29921"
       y="476.57477"
       id="text3657"><tspan
         sodipodi:role="line"
         id="tspan3659"
         x="106.29921"
         y="476.57477">req_burst</tspan></text>
    <text
       xml:space="preserve"
       style="font-size:12px;font-style:normal;font-weight:normal;fill:#000000;fill-opacity:1;stroke:none;font-family:Bitstream Vera Sans"
       x="115.15748"
       y="512.00787"
       id="text3661"><tspan
         sodipodi:role="line"
         id="tspan3663"
         x="115.15748"
         y="512.00787">adv_d0</tspan></text>
    <text
       xml:space="preserve"
       style="font-size:12px;font-style:normal;font-weight:normal;fill:#000000;fill-opacity:1;stroke:none;font-family:Bitstream Vera Sans"
       x="115.15748"
       y="547.44092"
       id="text3665"><tspan
         sodipodi:role="line"
         id="tspan3667"
         x="115.15748"
         y="547.44092">adv_d1</tspan></text>
    <text
       xml:space="preserve"
       style="font-size:12px;font-style:normal;font-weight:normal;fill:#000000;fill-opacity:1;stroke:none;font-family:Bitstream Vera Sans"
       x="70.866142"
       y="547.44092"
       id="text3669"><tspan
         sodipodi:role="line"
         id="tspan3671"
         x="70.866142"
         y="547.44092">ADV#</tspan></text>
    <text
       xml:space="preserve"
       style="font-size:12px;font-style:normal;font-weight:normal;fill:#000000;fill-opacity:1;stroke:none;font-family:Bitstream Vera Sans"
       x="99.02153"
       y="590.77692"
       id="text3673"><tspan
         sodipodi:role="line"
         id="tspan3675"
         x="99.02153"
         y="590.77692">D0:D1:EN</tspan></text>
    <text
       xml:space="preserve"
       style="font-size:12px;font-style:normal;font-weight:normal;fill:#000000;fill-opacity:1;stroke:none;font-family:Bitstream Vera Sans"
       x="69.285561"
       y="576.71674"
       id="text3677"><tspan
         sodipodi:role="line"
         id="tspan3679"
         x="69.285561"
         y="576.71674">clock generator</tspan></text>
    <text
       xml:space="preserve"
       style="font-size:12px;font-style:normal;font-weight:normal;fill:#000000;fill-opacity:1;stroke:none;font-family:Bitstream Vera Sans"
       x="97.440948"
       y="618.30707"
       id="text3681"><tspan
         sodipodi:role="line"
         id="tspan3683"
         x="97.440948"
         y="618.30707">micron_clk</tspan></text>
    <text
       xml:space="preserve"
       style="font-size:12px;font-style:normal;font-weight:normal;fill:#000000;fill-opacity:1;stroke:none;font-family:Bitstream Vera Sans"
       x="106.29921"
       y="653.74011"
       id="text3685"><tspan
         sodipodi:role="line"
         id="tspan3687"
         x="106.29921"
         y="653.74011">addr_reg</tspan></text>
    <text
       xml:space="preserve"
       style="font-size:12px;font-style:normal;font-weight:normal;fill:#000000;fill-opacity:1;stroke:none;font-family:Bitstream Vera Sans"
       x="79.724411"
       y="689.17322"
       id="text3689"><tspan
         sodipodi:role="line"
         id="tspan3691"
         x="79.724411"
         y="689.17322">req_data_write</tspan></text>
    <text
       xml:space="preserve"
       style="font-size:12px;font-style:normal;font-weight:normal;fill:#000000;fill-opacity:1;stroke:none;font-family:Bitstream Vera Sans"
       x="79.724411"
       y="724.60626"
       id="text3693"><tspan
         sodipodi:role="line"
         id="tspan3695"
         x="79.724411"
         y="724.60626">data_write_reg</tspan></text>
    <text
       xml:space="preserve"
       style="font-size:12px;font-style:normal;font-weight:normal;fill:#000000;fill-opacity:1;stroke:none;font-family:Bitstream Vera Sans"
       x="88.58268"
       y="760.03937"
       id="text3697"><tspan
         sodipodi:role="line"
         id="tspan3699"
         x="88.58268"
         y="760.03937">increment_en</tspan></text>
    <path
       transform="matrix(0.26343296,0,0,0.26343296,343.91108,427.79893)"
       d="m 265.74804,724.25195 c 0,4.89229 -3.96598,8.85827 -8.85827,8.85827 -4.89229,0 -8.85827,-3.96598 -8.85827,-8.85827 0,-4.89228 3.96598,-8.85826 8.85827,-8.85826 4.89229,0 8.85827,3.96598 8.85827,8.85826 z"
       sodipodi:ry="8.8582678"
       sodipodi:rx="8.8582678"
       sodipodi:cy="724.25195"
       sodipodi:cx="256.88977"
       id="path4275"
       style="stroke-width:1;stroke-miterlimit:4;stroke-dasharray:1, 3;stroke-dashoffset:0"
       sodipodi:type="arc" />
    <path
       style="fill:none;stroke:#000000;stroke-width:1px;stroke-linecap:butt;stroke-linejoin:miter;stroke-opacity:1"
       d="m 411.95086,706.88974 0,35.43307"
       id="path4277" />
    <path
       id="path4279"
       d="m 447.71527,706.88974 0,35.43307"
       style="fill:none;stroke:#000000;stroke-width:1px;stroke-linecap:butt;stroke-linejoin:miter;stroke-opacity:1" />
    <path
       sodipodi:type="arc"
       style="stroke-width:1;stroke-miterlimit:4;stroke-dasharray:1, 3;stroke-dashoffset:0"
       id="path3040"
       sodipodi:cx="256.88977"
       sodipodi:cy="724.25195"
       sodipodi:rx="8.8582678"
       sodipodi:ry="8.8582678"
       d="m 265.74804,724.25195 a 8.8582678,8.8582678 0 1 1 -17.71654,0 8.8582678,8.8582678 0 1 1 17.71654,0 z"
       transform="matrix(0.26343296,0,0,0.26343296,379.49806,427.79893)" />
  </g>
</svg>
